<svg xmlns="http://www.w3.org/2000/svg" viewBox="0 0 64 64">
  <circle cx="32" cy="32" r="30" fill="#0a0a0a"/>
  <circle cx="32" cy="32" r="10" fill="none" stroke="#dc2626" stroke-width="3"/>
  <g fill="#dc2626">
    <path d="M32 6 a8 8 0 0 1 7 12 a10 10 0 0 0 -14 0 a8 8 0 0 1 7 -12z"/>
    <path d="M58 39 a8 8 0 0 1 -13 4 a10 10 0 0 0 -7 -12 a8 8 0 0 1 13 -4 a10 10 0 0 0 7 12z" transform="rotate(120 32 32)"/>
    <path d="M58 39 a8 8 0 0 1 -13 4 a10 10 0 0 0 -7 -12 a8 8 0 0 1 13 -4 a10 10 0 0 0 7 12z" transform="rotate(240 32 32)"/>
  </g>
  <circle cx="32" cy="32" r="4" fill="#dc2626"/>
</svg>
